HIERARCHY
ROOT mixamorig:Hips
{
	OFFSET 0.000000 201.639420 0.000000
	CHANNELS 6 Xposition Yposition Zposition Xrotation Yrotation Zrotation
	JOINT mixamorig:Spine
	{
		OFFSET 0.006200 19.524994 -2.481800
		CHANNELS 3 Xrotation Yrotation Zrotation
		JOINT mixamorig:Spine1
		{
			OFFSET -0.000900 22.835007 -2.825400
			CHANNELS 3 Xrotation Yrotation Zrotation
			JOINT mixamorig:Spine2
			{
				OFFSET -0.020600 26.552490 -3.193300
				CHANNELS 3 Xrotation Yrotation Zrotation
				JOINT mixamorig:Neck
				{
					OFFSET -0.060000 30.701813 1.352200
					CHANNELS 3 Xrotation Yrotation Zrotation
					JOINT mixamorig:Head
					{
						OFFSET -0.087200 22.547607 3.670900
						CHANNELS 3 Xrotation Yrotation Zrotation
						JOINT mixamorig:HeadTop_End
						{
							OFFSET -0.830600 40.355194 7.893500
							CHANNELS 3 Xrotation Yrotation Zrotation
							End Site
							{
								OFFSET 0.000000 30.592346 0.000000
							}
						}
						JOINT mixamorig:RightEye
						{
							OFFSET -6.302100 18.118591 16.197100
							CHANNELS 3 Xrotation Yrotation Zrotation
							End Site
							{
								OFFSET 0.000000 30.592346 0.000000
							}
						}
						JOINT mixamorig:LeftEye
						{
							OFFSET 6.741500 18.382690 16.401899
							CHANNELS 3 Xrotation Yrotation Zrotation
							End Site
							{
								OFFSET 0.000000 30.592346 0.000000
							}
						}
					}
				}
				JOINT mixamorig:LeftShoulder
				{
					OFFSET 11.924900 18.230499 1.425400
					CHANNELS 3 Xrotation Yrotation Zrotation
					JOINT mixamorig:LeftArm
					{
						OFFSET 25.435989 -0.697632 -5.229300
						CHANNELS 3 Xrotation Yrotation Zrotation
						JOINT mixamorig:LeftForeArm
						{
							OFFSET 54.684776 0.000000 0.000000
							CHANNELS 3 Xrotation Yrotation Zrotation
							JOINT mixamorig:LeftHand
							{
								OFFSET 55.098175 0.000000 0.000000
								CHANNELS 3 Xrotation Yrotation Zrotation
								JOINT mixamorig:LeftHandMiddle1
								{
									OFFSET 23.369751 0.000000 0.000000
									CHANNELS 3 Xrotation Yrotation Zrotation
									JOINT mixamorig:LeftHandMiddle2
									{
										OFFSET 6.378677 0.000000 0.000000
										CHANNELS 3 Xrotation Yrotation Zrotation
										JOINT mixamorig:LeftHandMiddle3
										{
											OFFSET 6.148331 0.000000 0.000000
											CHANNELS 3 Xrotation Yrotation Zrotation
											JOINT mixamorig:LeftHandMiddle4
											{
												OFFSET 6.582504 0.000000 0.000000
												CHANNELS 3 Xrotation Yrotation Zrotation
												End Site
												{
													OFFSET -1.168900 6.395691 1.028606
												}
											}
										}
									}
								}
								JOINT mixamorig:LeftHandThumb1
								{
									OFFSET 7.235672 -3.848206 5.434273
									CHANNELS 3 Xrotation Yrotation Zrotation
									JOINT mixamorig:LeftHandThumb2
									{
										OFFSET 6.568451 -3.792297 3.792300
										CHANNELS 3 Xrotation Yrotation Zrotation
										JOINT mixamorig:LeftHandThumb3
										{
											OFFSET 6.063080 -3.500519 3.500518
											CHANNELS 3 Xrotation Yrotation Zrotation
											JOINT mixamorig:LeftHandThumb4
											{
												OFFSET 4.793182 -2.767334 2.767349
												CHANNELS 3 Xrotation Yrotation Zrotation
												End Site
												{
													OFFSET 0.101639 6.054260 1.275483
												}
											}
										}
									}
								}
								JOINT mixamorig:LeftHandIndex1
								{
									OFFSET 23.101074 -0.309540 4.992809
									CHANNELS 3 Xrotation Yrotation Zrotation
									JOINT mixamorig:LeftHandIndex2
									{
										OFFSET 6.226883 0.000000 0.000000
										CHANNELS 3 Xrotation Yrotation Zrotation
										JOINT mixamorig:LeftHandIndex3
										{
											OFFSET 6.094330 0.000000 0.000000
											CHANNELS 3 Xrotation Yrotation Zrotation
											JOINT mixamorig:LeftHandIndex4
											{
												OFFSET 5.482605 0.000000 0.000000
												CHANNELS 3 Xrotation Yrotation Zrotation
												End Site
												{
													OFFSET -1.427902 5.233032 0.797164
												}
											}
										}
									}
								}
								JOINT mixamorig:LeftHandRing1
								{
									OFFSET 22.299240 0.021149 -3.964172
									CHANNELS 3 Xrotation Yrotation Zrotation
									JOINT mixamorig:LeftHandRing2
									{
										OFFSET 6.321869 0.000000 0.000000
										CHANNELS 3 Xrotation Yrotation Zrotation
										JOINT mixamorig:LeftHandRing3
										{
											OFFSET 5.899796 0.000000 0.000000
											CHANNELS 3 Xrotation Yrotation Zrotation
											JOINT mixamorig:LeftHandRing4
											{
												OFFSET 6.517899 0.000000 0.000000
												CHANNELS 3 Xrotation Yrotation Zrotation
												End Site
												{
													OFFSET -1.637299 6.232208 0.980890
												}
											}
										}
									}
								}
								JOINT mixamorig:LeftHandPinky1
								{
									OFFSET 20.463791 -0.302338 -8.562233
									CHANNELS 3 Xrotation Yrotation Zrotation
									JOINT mixamorig:LeftHandPinky2
									{
										OFFSET 6.908646 0.000000 0.000000
										CHANNELS 3 Xrotation Yrotation Zrotation
										JOINT mixamorig:LeftHandPinky3
										{
											OFFSET 4.622849 0.000000 0.000000
											CHANNELS 3 Xrotation Yrotation Zrotation
											JOINT mixamorig:LeftHandPinky4
											{
												OFFSET 5.216080 0.000000 0.000000
												CHANNELS 3 Xrotation Yrotation Zrotation
												End Site
												{
													OFFSET -0.606308 5.116241 0.814926
												}
											}
										}
									}
								}
							}
						}
					}
				}
				JOINT mixamorig:RightShoulder
				{
					OFFSET -12.001300 18.284088 1.348900
					CHANNELS 3 Xrotation Yrotation Zrotation
					JOINT mixamorig:RightArm
					{
						OFFSET -25.308500 -0.751312 -5.164599
						CHANNELS 3 Xrotation Yrotation Zrotation
						JOINT mixamorig:RightForeArm
						{
							OFFSET -54.684429 0.000000 0.000000
							CHANNELS 3 Xrotation Yrotation Zrotation
							JOINT mixamorig:RightHand
							{
								OFFSET -55.150291 0.000000 0.000000
								CHANNELS 3 Xrotation Yrotation Zrotation
								JOINT mixamorig:RightHandMiddle1
								{
									OFFSET -23.317566 0.000000 0.000000
									CHANNELS 3 Xrotation Yrotation Zrotation
									JOINT mixamorig:RightHandMiddle2
									{
										OFFSET -6.378403 0.000000 0.000000
										CHANNELS 3 Xrotation Yrotation Zrotation
										JOINT mixamorig:RightHandMiddle3
										{
											OFFSET -6.148193 0.000000 0.000000
											CHANNELS 3 Xrotation Yrotation Zrotation
											JOINT mixamorig:RightHandMiddle4
											{
												OFFSET -6.583389 0.000000 0.000000
												CHANNELS 3 Xrotation Yrotation Zrotation
												End Site
												{
													OFFSET 1.171692 6.395905 1.029786
												}
											}
										}
									}
								}
								JOINT mixamorig:RightHandThumb1
								{
									OFFSET -7.190521 -3.860474 5.435846
									CHANNELS 3 Xrotation Yrotation Zrotation
									JOINT mixamorig:RightHandThumb2
									{
										OFFSET -6.567429 -3.791718 3.791708
										CHANNELS 3 Xrotation Yrotation Zrotation
										JOINT mixamorig:RightHandThumb3
										{
											OFFSET -6.062469 -3.500153 3.500166
											CHANNELS 3 Xrotation Yrotation Zrotation
											JOINT mixamorig:RightHandThumb4
											{
												OFFSET -4.792618 -2.767029 2.767022
												CHANNELS 3 Xrotation Yrotation Zrotation
												End Site
												{
													OFFSET -0.100327 6.053253 1.276754
												}
											}
										}
									}
								}
								JOINT mixamorig:RightHandIndex1
								{
									OFFSET -23.048981 -0.310791 4.992554
									CHANNELS 3 Xrotation Yrotation Zrotation
									JOINT mixamorig:RightHandIndex2
									{
										OFFSET -6.227539 0.000000 0.000000
										CHANNELS 3 Xrotation Yrotation Zrotation
										JOINT mixamorig:RightHandIndex3
										{
											OFFSET -6.095047 0.000000 0.000000
											CHANNELS 3 Xrotation Yrotation Zrotation
											JOINT mixamorig:RightHandIndex4
											{
												OFFSET -5.484772 0.000000 0.000000
												CHANNELS 3 Xrotation Yrotation Zrotation
												End Site
												{
													OFFSET 1.420593 5.237305 0.797056
												}
											}
										}
									}
								}
								JOINT mixamorig:RightHandRing1
								{
									OFFSET -22.246323 0.020569 -3.963762
									CHANNELS 3 Xrotation Yrotation Zrotation
									JOINT mixamorig:RightHandRing2
									{
										OFFSET -6.322128 0.000000 0.000000
										CHANNELS 3 Xrotation Yrotation Zrotation
										JOINT mixamorig:RightHandRing3
										{
											OFFSET -5.900024 0.000000 0.000000
											CHANNELS 3 Xrotation Yrotation Zrotation
											JOINT mixamorig:RightHandRing4
											{
												OFFSET -6.518356 0.000000 0.000000
												CHANNELS 3 Xrotation Yrotation Zrotation
												End Site
												{
													OFFSET 1.636398 6.232697 0.982186
												}
											}
										}
									}
								}
								JOINT mixamorig:RightHandPinky1
								{
									OFFSET -20.411011 -0.303314 -8.561701
									CHANNELS 3 Xrotation Yrotation Zrotation
									JOINT mixamorig:RightHandPinky2
									{
										OFFSET -6.907349 0.000000 0.000000
										CHANNELS 3 Xrotation Yrotation Zrotation
										JOINT mixamorig:RightHandPinky3
										{
											OFFSET -4.623840 0.000000 0.000000
											CHANNELS 3 Xrotation Yrotation Zrotation
											JOINT mixamorig:RightHandPinky4
											{
												OFFSET -5.218353 0.000000 0.000000
												CHANNELS 3 Xrotation Yrotation Zrotation
												End Site
												{
													OFFSET 0.602097 5.118835 0.816273
												}
											}
										}
									}
								}
							}
						}
					}
				}
			}
		}
	}
	JOINT mixamorig:LeftUpLeg
	{
		OFFSET 18.168400 -13.561905 -0.039000
		CHANNELS 3 Xrotation Yrotation Zrotation
		JOINT mixamorig:LeftLeg
		{
			OFFSET 0.577358 -80.825211 -3.695000
			CHANNELS 3 Xrotation Yrotation Zrotation
			JOINT mixamorig:LeftFoot
			{
				OFFSET -0.577356 -83.370262 -6.520700
				CHANNELS 3 Xrotation Yrotation Zrotation
				JOINT mixamorig:LeftToeBase
				{
					OFFSET 0.750401 -20.798306 25.135401
					CHANNELS 3 Xrotation Yrotation Zrotation
					JOINT mixamorig:LeftToe_End
					{
						OFFSET -0.000500 0.001200 19.917799
						CHANNELS 3 Xrotation Yrotation Zrotation
						End Site
						{
							OFFSET 0.000000 19.917805 0.000000
						}
					}
				}
			}
		}
	}
	JOINT mixamorig:RightUpLeg
	{
		OFFSET -18.162500 -13.585098 -0.041000
		CHANNELS 3 Xrotation Yrotation Zrotation
		JOINT mixamorig:RightLeg
		{
			OFFSET -0.595024 -80.945297 -3.631900
			CHANNELS 3 Xrotation Yrotation Zrotation
			JOINT mixamorig:RightFoot
			{
				OFFSET 0.595024 -83.218193 -6.561200
				CHANNELS 3 Xrotation Yrotation Zrotation
				JOINT mixamorig:RightToeBase
				{
					OFFSET -0.753601 -20.807106 25.115000
					CHANNELS 3 Xrotation Yrotation Zrotation
					JOINT mixamorig:RightToe_End
					{
						OFFSET 0.000299 0.001700 19.918200
						CHANNELS 3 Xrotation Yrotation Zrotation
						End Site
						{
							OFFSET 0.000000 19.918203 0.000000
						}
					}
				}
			}
		}
	}
}
MOTION
Frames: 4
Frame Time: 0.033333
0.374572 200.312607 -0.375375 -3.753456 -5.224849 -3.507160 3.303689 1.534728 2.479810 1.151890 0.339457 1.552798 1.126015 0.361543 1.555886 5.626309 -0.078963 0.454683 -7.563345 1.375724 -0.080566 -0.000000 -0.000000 0.000000 -0.000000 -0.000000 0.000000 -0.000000 -0.000000 0.000000 1.049449 -17.442070 -12.319430 3.916257 -19.989266 -69.765219 -0.000003 -1.459366 -0.000010 -33.230414 -1.364821 -6.186622 -0.076312 2.665773 -15.696837 0.268779 1.755800 -17.405547 0.300526 1.853981 -18.413331 -0.000002 -0.000000 -0.000004 -0.663006 2.160312 4.832513 11.853539 25.421633 17.058315 -13.813947 3.537276 9.036019 0.000000 0.000003 0.000003 0.019866 -0.969583 -7.593542 0.267874 1.752891 -17.375725 0.057679 0.820954 -8.038017 -0.000001 -0.000000 0.000000 0.136910 3.641777 -21.133524 0.386620 2.094790 -20.911910 0.283040 1.800633 -17.864997 -0.000001 -0.000001 0.000002 0.927728 5.555915 -27.128055 0.268790 1.755841 -17.405882 0.241905 1.667704 -16.505890 0.000000 -0.000000 0.000004 1.203181 15.343660 14.705968 13.158861 27.555116 58.785136 0.000002 6.693751 0.000023 -20.179082 -0.514097 6.782784 -0.136228 -2.205103 14.998891 0.214442 -1.398354 17.436868 0.239776 -1.476531 18.446266 0.000000 0.000002 0.000000 -1.665249 -0.174478 -4.219026 12.710945 -29.825339 -16.130955 -15.549423 -3.559393 -12.707116 -0.000005 -0.000000 -0.000001 0.038548 1.262295 6.823722 0.213720 -1.396021 17.407031 0.046031 -0.653855 8.053204 -0.000000 0.000001 0.000000 0.030609 -3.075770 20.451002 0.308451 -1.668273 20.948549 0.225821 -1.434045 17.897092 -0.000001 -0.000001 0.000004 0.748881 -4.885240 26.473776 0.214456 -1.398375 17.437248 0.193009 -1.328177 16.535827 -0.000003 0.000002 -0.000001 -13.008421 14.262758 10.836331 13.096333 2.098449 4.210344 2.619593 0.419505 -7.303446 -4.928528 0.000007 -0.000002 0.000000 0.000000 0.000000 -0.243978 -10.396286 3.110964 6.110688 -9.762777 -3.279713 -1.645244 -1.557836 2.850911 -7.282878 -0.000007 -0.000001 -0.000001 0.000002 -0.000000 
0.313434 200.220917 -0.283440 -3.849733 -5.169517 -3.470283 3.294742 1.532889 2.468400 1.135474 0.335888 1.540294 1.109360 0.357773 1.543446 5.788488 -0.041780 0.412738 -7.420302 1.653798 -0.350246 -0.000000 -0.000000 0.000000 -0.000000 -0.000000 0.000000 -0.000000 -0.000000 0.000000 1.058178 -17.497934 -12.269096 3.915970 -19.862617 -69.888101 0.000001 -1.470087 -0.000013 -33.337187 -1.421396 -6.199024 -0.082369 2.633410 -15.575382 0.268785 1.755806 -17.405555 0.300531 1.853987 -18.413418 -0.000000 -0.000002 0.000003 -0.702398 2.076298 4.856831 11.816186 25.344178 17.081687 -13.802154 3.570818 9.038473 0.000001 0.000001 -0.000000 0.019102 -1.013645 -7.439951 0.267905 1.752999 -17.376841 0.057699 0.821045 -8.038909 -0.000001 0.000000 -0.000001 0.138398 3.639794 -20.996877 0.386635 2.094818 -20.912193 0.283016 1.800564 -17.864331 0.000000 -0.000001 0.000005 0.921554 5.546602 -27.026768 0.268176 1.753871 -17.385768 0.241323 1.665728 -16.485766 -0.000002 0.000001 -0.000002 1.180892 15.378372 14.811952 13.150780 27.376385 58.791277 -0.000009 6.704213 -0.000003 -20.422027 -0.517943 6.942337 -0.118299 -2.255728 14.804295 0.214042 -1.397071 17.420432 0.239350 -1.475252 18.429758 -0.000001 0.000002 0.000002 -1.904382 0.330720 -4.281710 12.152771 -28.727902 -16.327851 -15.592087 -3.464672 -12.676518 0.000001 -0.000001 -0.000002 0.125856 1.403199 5.372891 0.210774 -1.386597 17.285728 0.044651 -0.644071 7.931979 0.000003 0.000000 -0.000002 0.044053 -3.114324 20.508697 0.308488 -1.668383 20.949826 0.225857 -1.434138 17.898389 -0.000002 -0.000000 0.000003 0.727122 -4.851290 26.707457 0.211184 -1.387917 17.302713 0.189889 -1.317639 16.400816 -0.000002 -0.000001 -0.000003 -13.082641 14.272791 10.861232 13.483744 2.036525 4.216061 2.401243 0.408864 -7.333009 -4.928527 0.000008 -0.000001 0.000000 -0.000000 0.000000 -0.560463 -10.363320 3.003728 6.989407 -9.930694 -3.277863 -2.122170 -1.523980 2.931928 -7.282878 -0.000008 -0.000001 0.000000 0.000003 0.000000 
0.230143 200.107681 -0.135090 -3.988465 -5.108268 -3.437288 3.273883 1.520635 2.463110 1.104020 0.315952 1.528383 1.077507 0.337528 1.531406 5.958811 0.022423 0.281544 -6.997564 2.136508 -0.912194 0.000000 -0.000000 0.000000 0.000000 -0.000000 0.000000 0.000000 -0.000000 0.000000 1.072242 -17.571106 -12.185178 3.972269 -19.694997 -70.050236 0.000008 -1.471652 -0.000006 -33.482154 -1.489790 -6.199700 -0.076701 2.653145 -15.566583 0.268779 1.755802 -17.405566 0.300525 1.853985 -18.413353 -0.000000 -0.000001 -0.000001 -0.701728 2.080195 4.836855 11.806062 25.323177 17.088046 -13.802676 3.569331 9.038370 0.000001 -0.000001 -0.000001 0.014708 -1.022245 -7.455092 0.267413 1.751416 -17.360635 0.057463 0.819394 -8.022654 -0.000001 0.000000 0.000002 0.139598 3.643050 -21.000122 0.385899 2.092902 -20.892159 0.282387 1.798588 -17.844054 -0.000001 -0.000000 -0.000000 0.929663 5.562903 -27.040164 0.268198 1.753936 -17.386368 0.241309 1.665691 -16.485360 -0.000001 -0.000001 0.000003 1.148299 15.419169 14.966317 13.000266 26.969087 58.864230 0.000002 6.706494 0.000005 -21.167043 -0.380810 7.121381 -0.064079 -2.468397 14.895772 0.216327 -1.404325 17.513679 0.241760 -1.482456 18.523104 -0.000003 0.000001 0.000003 -2.242715 1.016589 -4.230674 11.690984 -27.799749 -16.487155 -15.674683 -3.281483 -12.617208 -0.000004 -0.000002 -0.000001 0.334934 1.481311 2.614787 0.199996 -1.351460 16.834338 0.039716 -0.607610 7.480259 -0.000000 -0.000000 -0.000001 0.046390 -3.141806 21.010797 0.313401 -1.681171 21.118170 0.230086 -1.447172 18.066655 0.000000 0.000002 0.000001 0.611659 -4.679655 27.546259 0.214273 -1.397788 17.429620 0.192773 -1.327390 16.525634 -0.000001 -0.000001 -0.000001 -13.150122 14.277700 10.908443 13.978568 1.973046 4.221713 2.110229 0.396473 -7.376634 -4.928528 0.000008 -0.000001 -0.000000 -0.000000 0.000000 -0.840773 -10.343210 2.898630 7.931526 -10.019937 -3.275830 -2.650789 -1.563255 3.018088 -7.282878 -0.000007 -0.000001 0.000000 -0.000002 -0.000000 
0.127929 199.998505 0.063921 -4.142745 -5.029449 -3.421333 3.231187 1.495106 2.472001 1.047418 0.275203 1.530257 1.020365 0.296389 1.532782 6.059841 0.117340 0.001114 -6.153986 2.824564 -1.859710 0.000000 -0.000000 0.000000 0.000000 -0.000000 0.000000 0.000000 -0.000000 0.000000 1.091048 -17.633366 -12.066371 4.116896 -19.584476 -70.230040 -0.000011 -1.471169 0.000006 -33.582100 -1.512599 -6.209524 -0.078483 2.645162 -15.548709 0.269188 1.757082 -17.418630 0.300949 1.855253 -18.426486 -0.000000 0.000000 0.000000 -0.711975 2.055367 4.866453 11.779352 25.267600 17.104720 -13.788958 3.608389 9.041288 -0.000002 0.000001 0.000002 0.017282 -1.032076 -7.392206 0.267372 1.751300 -17.359450 0.057443 0.819269 -8.021417 -0.000001 -0.000000 0.000000 0.140909 3.645380 -20.974041 0.386201 2.093692 -20.900401 0.282631 1.799356 -17.851896 0.000000 -0.000001 -0.000004 0.935399 5.575584 -27.027702 0.268784 1.755803 -17.405544 0.241840 1.667484 -16.503614 -0.000002 -0.000000 -0.000001 1.114711 15.412889 15.124750 12.611096 26.260433 59.076540 0.000004 6.679873 0.000018 -22.602450 0.035483 7.148641 -0.032393 -2.612295 15.286243 0.216883 -1.406060 17.536162 0.242336 -1.484203 18.545739 0.000005 -0.000000 0.000002 -2.587954 1.739109 -4.272941 11.388541 -27.181814 -16.589614 -15.743658 -3.128639 -12.567680 -0.000004 -0.000001 -0.000001 0.487551 1.496921 0.670122 0.183524 -1.295825 16.121688 0.032516 -0.549983 6.767238 0.000002 -0.000000 -0.000001 0.031329 -3.130850 21.649176 0.316042 -1.687993 21.208156 0.232363 -1.454138 18.156641 0.000000 0.000000 0.000005 0.474834 -4.490007 28.422331 0.214564 -1.398728 17.441822 0.192992 -1.328133 16.535191 0.000001 -0.000001 0.000000 -13.188669 14.274274 10.976136 14.470160 1.897663 4.228757 1.805947 0.385266 -7.430856 -4.928528 0.000007 -0.000001 -0.000000 0.000000 0.000000 -0.992297 -10.327872 2.835126 8.703562 -10.016875 -3.273353 -3.113734 -1.697984 3.084478 -7.282877 -0.000009 -0.000001 -0.000000 -0.000002 0.000000 
